<svg width="226" height="29" viewBox="0 0 226 29" fill="none" xmlns="http://www.w3.org/2000/svg">
<path fill-rule="evenodd" clip-rule="evenodd" d="M81.1106 14.5C81.1106 6.44429 85.1813 0 92.5222 0C99.8644 0 103.934 6.44429 103.934 14.5C103.934 22.5571 99.8631 29 92.5236 29C85.1813 29 81.1106 22.5571 81.1106 14.5ZM92.5222 24.9783C95.3775 24.9783 96.593 20.1441 96.593 14.5109C96.593 8.87509 95.3679 4.04358 92.5222 4.04358C89.6765 4.04358 88.4514 8.87646 88.4514 14.5109C88.4418 20.1441 89.6669 24.9783 92.5222 24.9783ZM5.29584 0.410377V8.06528H5.70099L10.9968 0.410377H18.328L8.54666 9.26632L8.9518 9.66712L26.8857 0.400802V6.84509L10.9872 12.4796V12.879L26.8857 11.4728V17.5176L10.9872 16.1114V16.5122L26.8857 22.1453V28.591L8.9518 19.3233L8.54666 19.7241L18.328 28.58H10.9968L5.70099 20.9251H5.29584V28.58H0V0.391226H5.29584V0.410377ZM31.7957 0.410377H38.7232L38.318 17.322H38.7232L46.8743 0.410377H52.9901V28.6006H46.064L46.4692 11.6875H46.064L37.9101 28.6019H31.7943V0.410377H31.7957ZM64.8069 0.410377H57.8808V28.6006H64.8069V16.1114H70.5079V28.6006H77.4339V0.410377H70.5079V11.2881H64.8069V0.410377ZM127.164 0.410377H107.609V28.6006H114.537V5.24325H120.238V28.6006H127.164V0.410377ZM130.829 14.5C130.829 6.44429 134.9 0 142.242 0C149.573 0 153.654 6.44429 153.654 14.5C153.654 22.5571 149.583 29 142.242 29C134.911 29 130.829 22.5571 130.829 14.5ZM142.242 24.9783C145.098 24.9783 146.313 20.1441 146.313 14.5109C146.313 8.87509 145.088 4.04358 142.242 4.04358C139.387 4.04358 138.171 8.87646 138.171 14.5109C138.171 20.1441 139.387 24.9783 142.242 24.9783ZM164.245 0.410377H157.319V28.6006H163.435L171.588 11.6875H171.993L171.588 28.6006H178.514V0.410377H172.398L164.245 17.322H163.84L164.245 0.410377ZM196.863 18.9334L203.383 19.7337C202.158 25.3695 199.313 29 193.236 29C185.904 29 182.189 22.5571 182.189 14.5C182.189 6.44429 185.895 0 193.236 0C199.185 0 202.158 3.62363 203.383 8.85731L196.863 10.4674C196.457 7.64533 195.271 4.02443 193.236 4.02443C190.795 4.02443 189.53 8.85731 189.53 14.4904C189.53 20.0852 190.795 24.9578 193.236 24.9578C195.232 24.9783 196.446 21.7555 196.863 18.9334ZM213.165 0.411745H206.644V28.6006H213.165V16.1114H213.57L218.461 28.6006H226L218.866 14.1006L225.792 0.410377H218.866L213.57 12.8995H213.165V0.410377V0.411745Z" fill="#ECECEC"/>
</svg>
