<svg viewBox="0 0 18 22" fill="none" xmlns="http://www.w3.org/2000/svg">
<path d="M17.3354 12.8358C17.2337 12.9402 16.8497 13.3866 16.492 13.7538C14.3947 16.0632 8.92372 19.8432 6.0602 20.997C5.62533 21.1824 4.52586 21.5748 3.93843 21.6C3.37555 21.6 2.83897 21.4704 2.32694 21.2076C1.68865 20.8404 1.17662 20.2626 0.896055 19.5804C0.715441 19.107 0.434876 17.6904 0.434876 17.6652C0.154311 16.1154 0 13.5972 0 10.8144C0 8.163 0.154311 5.7474 0.384023 4.1742C0.410326 4.149 0.690891 2.3886 0.997759 1.7856C1.56064 0.684 2.66011 0 3.83673 0H3.93843C4.70472 0.027 6.31622 0.711 6.31622 0.7362C9.02543 1.8918 14.3702 5.4864 16.5183 7.875C16.5183 7.875 17.1232 8.4888 17.3863 8.8722C17.7966 9.423 18 10.1052 18 10.7874C18 11.5488 17.7703 12.258 17.3354 12.8358" fill="white"/>
</svg>
