<svg width="288" height="57" fill="none" xmlns="http://www.w3.org/2000/svg"><path d="M36.86 19.09V38h-2.844V21.528h-8.9V38H22.27V19.09H36.86Zm10.114 19.196c-1.33 0-2.49-.305-3.48-.914-.992-.61-1.761-1.462-2.309-2.557-.548-1.096-.822-2.376-.822-3.841 0-1.471.274-2.758.822-3.86.548-1.102 1.317-1.957 2.308-2.566.991-.61 2.151-.914 3.481-.914s2.49.304 3.48.914c.992.609 1.761 1.465 2.31 2.566.547 1.102.82 2.389.82 3.86 0 1.465-.273 2.745-.82 3.84-.549 1.096-1.318 1.949-2.31 2.558-.99.61-2.15.914-3.48.914Zm.01-2.317c.861 0 1.575-.228 2.141-.684.567-.455.985-1.061 1.256-1.818.277-.758.416-1.591.416-2.502 0-.905-.139-1.736-.416-2.493-.27-.764-.69-1.376-1.256-1.838-.566-.461-1.28-.692-2.142-.692-.868 0-1.588.23-2.16.692-.566.462-.988 1.074-1.265 1.838-.27.757-.406 1.588-.406 2.492 0 .912.135 1.745.406 2.503.277.757.699 1.363 1.265 1.819.572.455 1.292.683 2.16.683ZM56.665 38V23.818h11.57V38H65.53V26.2h-6.177V38h-2.687Zm15.26 5.318v-19.5h2.696v2.3h.231c.16-.296.39-.638.693-1.026.301-.387.72-.726 1.255-1.015.536-.296 1.243-.444 2.124-.444 1.145 0 2.166.29 3.065.868.899.579 1.604 1.413 2.114 2.503.517 1.089.776 2.4.776 3.933 0 1.532-.255 2.847-.766 3.942-.511 1.09-1.213 1.93-2.106 2.52-.892.586-1.91.878-3.056.878-.861 0-1.566-.145-2.114-.434-.542-.29-.966-.628-1.274-1.016a7.695 7.695 0 0 1-.711-1.034h-.166v7.525h-2.76Zm2.705-12.409c0 .997.145 1.871.434 2.622.29.751.708 1.339 1.256 1.764.548.418 1.219.628 2.013.628.825 0 1.514-.219 2.068-.656.554-.443.972-1.043 1.256-1.8.289-.758.434-1.61.434-2.558 0-.935-.142-1.776-.425-2.52-.277-.745-.696-1.333-1.256-1.764-.554-.43-1.246-.646-2.077-.646-.8 0-1.478.206-2.031.618-.548.413-.964.988-1.247 1.727-.283.738-.425 1.6-.425 2.585Zm19.316 7.377c-1.33 0-2.49-.305-3.481-.914-.991-.61-1.76-1.462-2.308-2.557-.548-1.096-.822-2.376-.822-3.841 0-1.471.274-2.758.822-3.86.547-1.102 1.317-1.957 2.308-2.566.99-.61 2.151-.914 3.48-.914 1.33 0 2.49.304 3.482.914.99.609 1.76 1.465 2.308 2.566.548 1.102.822 2.389.822 3.86 0 1.465-.274 2.745-.822 3.84-.548 1.096-1.317 1.949-2.308 2.558-.991.61-2.152.914-3.481.914Zm.009-2.317c.862 0 1.576-.228 2.142-.684.566-.455.985-1.061 1.256-1.818.277-.758.415-1.591.415-2.502 0-.905-.138-1.736-.415-2.493-.271-.764-.69-1.376-1.256-1.838-.566-.461-1.28-.692-2.142-.692-.868 0-1.588.23-2.16.692-.567.462-.989 1.074-1.266 1.838-.27.757-.406 1.588-.406 2.492 0 .912.136 1.745.407 2.503.276.757.698 1.363 1.264 1.819.573.455 1.293.683 2.161.683Zm20.624-17.432 1.145 1.745a3.765 3.765 0 0 1-1.45.83 8.274 8.274 0 0 1-1.855.306c-.702.037-1.505.07-2.41.101-1.022.031-1.862.253-2.521.665-.658.406-1.166 1.01-1.523 1.81-.351.794-.579 1.79-.684 2.991h.176c.462-.88 1.102-1.539 1.92-1.976.825-.437 1.752-.655 2.779-.655 1.145 0 2.164.261 3.057.785.892.523 1.594 1.289 2.105 2.299.517 1.003.775 2.23.775 3.683 0 1.472-.271 2.743-.812 3.814-.536 1.07-1.293 1.899-2.272 2.483-.972.579-2.12.868-3.443.868-1.324 0-2.478-.298-3.463-.895-.978-.604-1.739-1.496-2.28-2.678-.536-1.182-.804-2.64-.804-4.376v-1.404c0-3.244.579-5.684 1.736-7.322 1.157-1.637 2.887-2.477 5.189-2.52a43.94 43.94 0 0 1 1.994-.01c.585.007 1.096-.02 1.533-.082.443-.068.813-.222 1.108-.462Zm-5.004 17.432c.769 0 1.431-.194 1.985-.582.56-.394.991-.95 1.293-1.671.301-.72.452-1.57.452-2.548 0-.96-.151-1.776-.452-2.447-.302-.671-.733-1.182-1.293-1.533-.56-.357-1.231-.535-2.013-.535-.578 0-1.096.101-1.551.304-.456.197-.846.49-1.173.877a4.21 4.21 0 0 0-.747 1.422c-.173.554-.265 1.191-.277 1.912 0 1.465.335 2.631 1.006 3.499.677.868 1.6 1.302 2.77 1.302Zm15.576 2.317c-1.33 0-2.49-.305-3.481-.914-.991-.61-1.76-1.462-2.308-2.557-.548-1.096-.822-2.376-.822-3.841 0-1.471.274-2.758.822-3.86.548-1.102 1.317-1.957 2.308-2.566.991-.61 2.151-.914 3.481-.914 1.329 0 2.49.304 3.481.914.991.609 1.76 1.465 2.308 2.566.548 1.102.822 2.389.822 3.86 0 1.465-.274 2.745-.822 3.84-.548 1.096-1.317 1.949-2.308 2.558-.991.61-2.152.914-3.481.914Zm.009-2.317c.862 0 1.576-.228 2.142-.684.566-.455.985-1.061 1.256-1.818.277-.758.415-1.591.415-2.502 0-.905-.138-1.736-.415-2.493-.271-.764-.69-1.376-1.256-1.838-.566-.461-1.28-.692-2.142-.692-.868 0-1.588.23-2.16.692-.567.462-.988 1.074-1.265 1.838-.271.757-.407 1.588-.407 2.492 0 .912.136 1.745.407 2.503.277.757.698 1.363 1.265 1.819.572.455 1.292.683 2.16.683ZM134.844 38V23.818h5.881c1.601 0 2.869.342 3.804 1.025.936.677 1.404 1.597 1.404 2.76 0 .832-.265 1.49-.794 1.976-.53.487-1.231.813-2.105.98a4.462 4.462 0 0 1 1.745.572 3.56 3.56 0 0 1 1.274 1.218c.326.511.489 1.12.489 1.829 0 .75-.194 1.415-.581 1.994-.388.572-.951 1.022-1.69 1.348-.733.32-1.616.48-2.65.48h-6.777Zm2.595-2.308h4.182c.683 0 1.219-.163 1.607-.49.387-.326.581-.769.581-1.33 0-.658-.194-1.175-.581-1.55-.388-.382-.924-.573-1.607-.573h-4.182v3.943Zm0-5.965h3.314c.517 0 .96-.074 1.33-.221.375-.148.661-.357.858-.628.204-.277.305-.603.305-.979 0-.548-.225-.976-.674-1.283-.449-.308-1.065-.462-1.847-.462h-3.286v3.573Zm16.259 8.587c-.899 0-1.711-.166-2.438-.499a4.101 4.101 0 0 1-1.726-1.468c-.419-.64-.628-1.425-.628-2.354 0-.8.154-1.459.462-1.976a3.401 3.401 0 0 1 1.246-1.228 6.51 6.51 0 0 1 1.754-.683 17.46 17.46 0 0 1 1.976-.351l2.068-.24c.53-.068.914-.175 1.154-.323.24-.148.36-.388.36-.72v-.065c0-.806-.227-1.431-.683-1.874-.449-.444-1.12-.665-2.013-.665-.929 0-1.661.206-2.197.619-.529.406-.896.858-1.099 1.357l-2.594-.591c.308-.862.757-1.558 1.348-2.087a5.465 5.465 0 0 1 2.059-1.163 8.035 8.035 0 0 1 2.447-.37c.566 0 1.166.068 1.8.204.64.129 1.237.369 1.791.72.56.35 1.019.852 1.376 1.505.357.646.535 1.486.535 2.52V38H158v-1.939h-.11a3.942 3.942 0 0 1-.804 1.053c-.357.344-.815.63-1.375.858-.561.228-1.231.342-2.013.342Zm.6-2.216c.763 0 1.416-.15 1.957-.452.548-.302.964-.696 1.247-1.182a3.069 3.069 0 0 0 .434-1.58v-1.827c-.099.098-.29.19-.573.277a8.92 8.92 0 0 1-.951.212c-.357.056-.704.108-1.043.157l-.849.11a6.86 6.86 0 0 0-1.469.343c-.437.16-.787.39-1.052.692-.259.296-.388.69-.388 1.182 0 .683.253 1.2.757 1.551.505.345 1.148.517 1.93.517Zm8.317-9.898v-2.382h11.965V26.2h-4.625V38h-2.696V26.2h-4.644Zm16.963 2.493h4.118c1.735 0 3.071.431 4.007 1.293.935.861 1.403 1.973 1.403 3.333 0 .886-.209 1.683-.628 2.391-.418.708-1.031 1.268-1.837 1.68-.806.407-1.788.61-2.945.61H177.5V23.818h2.706v11.8h3.49c.794 0 1.446-.206 1.957-.619.511-.418.766-.95.766-1.597 0-.683-.255-1.24-.766-1.671-.511-.437-1.163-.656-1.957-.656h-4.118v-2.382Zm34.508-9.602V38h-2.844V21.528h-8.9V38h-2.844V19.09h14.588ZM217.11 38l-.01-2.391h.508c.394 0 .724-.083.988-.25.271-.172.493-.461.665-.867.172-.407.305-.967.397-1.68.092-.721.16-1.626.203-2.715l.249-6.279h9.898V38h-2.705V26.2h-4.635l-.222 4.82c-.055 1.17-.175 2.191-.36 3.065-.178.874-.44 1.604-.785 2.188-.344.579-.787 1.013-1.329 1.302-.542.283-1.2.425-1.976.425h-.886Zm23.717-8.18v2.4h-7.562v-2.4h7.562Zm-5.318-6.002V38h-2.761V23.818h2.761Zm9.639 14.468c-1.317 0-2.468-.308-3.453-.923-.985-.616-1.748-1.471-2.29-2.567-.542-1.102-.812-2.379-.812-3.831 0-1.465.27-2.746.812-3.841.542-1.102 1.305-1.958 2.29-2.567.985-.616 2.136-.923 3.453-.923 1.323 0 2.474.307 3.453.923.985.61 1.748 1.465 2.29 2.567.548 1.095.822 2.376.822 3.84 0 1.453-.274 2.73-.822 3.832-.542 1.096-1.305 1.951-2.29 2.567-.979.615-2.13.923-3.453.923Zm0-2.363c.892 0 1.622-.225 2.188-.674.573-.456.994-1.06 1.265-1.81.271-.751.406-1.576.406-2.474 0-.905-.135-1.733-.406-2.484-.271-.757-.692-1.364-1.265-1.82-.566-.455-1.296-.682-2.188-.682-.886 0-1.616.227-2.188.683-.573.455-.994 1.062-1.265 1.819-.271.75-.406 1.579-.406 2.483 0 .9.135 1.724.406 2.475.271.75.692 1.354 1.265 1.81.572.449 1.302.674 2.188.674Zm15.793 2.363c-1.373 0-2.555-.31-3.546-.932-.984-.628-1.742-1.493-2.271-2.595-.529-1.102-.794-2.363-.794-3.785 0-1.44.271-2.712.813-3.814.541-1.107 1.305-1.972 2.289-2.594.985-.622 2.145-.932 3.481-.932 1.077 0 2.038.2 2.881.6a5.167 5.167 0 0 1 2.04 1.662c.524.714.834 1.548.933 2.502h-2.687a3.218 3.218 0 0 0-1.016-1.718c-.523-.48-1.224-.72-2.105-.72-.769 0-1.443.203-2.022.61-.572.4-1.018.972-1.338 1.717-.321.739-.481 1.613-.481 2.622 0 1.034.157 1.927.471 2.678.314.75.757 1.332 1.33 1.745.578.412 1.259.618 2.04.618a3.43 3.43 0 0 0 1.422-.286 2.9 2.9 0 0 0 1.08-.84c.296-.363.502-.8.619-1.311h2.687a5.222 5.222 0 0 1-.896 2.456c-.498.72-1.166 1.286-2.003 1.699-.831.412-1.807.618-2.927.618Z" fill="url(#a)"/><rect x="1" y="1" width="286" height="55" rx="14" stroke="url(#b)" stroke-width="2"/><defs><linearGradient id="a" x1="20" y1="44" x2="268" y2="13" gradientUnits="userSpaceOnUse"><stop stop-color="#AE2BE0"/><stop offset="1" stop-color="#50B2FB"/></linearGradient><linearGradient id="b" x1="0" y1="57" x2="288" y2="0" gradientUnits="userSpaceOnUse"><stop stop-color="#AE2BE0"/><stop offset="1" stop-color="#4EB6FC"/></linearGradient></defs></svg>
