<svg width="24" height="24" viewBox="0 0 24 24" fill="none" xmlns="http://www.w3.org/2000/svg">
<g id="Iconly/Light-Outline/Play">
<g id="Play">
<path id="Fill 1" fill-rule="evenodd" clip-rule="evenodd" d="M12.25 3.5C7.425 3.5 3.5 7.425 3.5 12.25C3.5 17.075 7.425 21 12.25 21C17.075 21 21 17.075 21 12.25C21 7.425 17.075 3.5 12.25 3.5M12.25 22.5C6.598 22.5 2 17.902 2 12.25C2 6.598 6.598 2 12.25 2C17.902 2 22.5 6.598 22.5 12.25C22.5 17.902 17.902 22.5 12.25 22.5" fill="white"/>
<path id="Fill 3" fill-rule="evenodd" clip-rule="evenodd" d="M11.134 10.0855C10.957 11.0865 10.954 13.4775 11.131 14.4275C12.009 14.1175 13.911 12.8675 14.423 12.2485C13.913 11.6475 12.035 10.4235 11.134 10.0855V10.0855ZM10.828 16.0005C10.558 16.0005 10.302 15.9235 10.093 15.7155C9.932 15.5565 9.502 15.1315 9.5 12.3325C9.499 9.36054 9.946 8.91854 10.093 8.77154C10.616 8.25354 11.468 8.60854 11.831 8.76054C12.351 8.97754 16 10.8465 16 12.2445C16 13.5545 12.716 15.3865 11.877 15.7365C11.55 15.8725 11.177 16.0005 10.828 16.0005V16.0005Z" fill="white"/>
</g>
</g>
</svg>
