<svg width="24" height="24" viewBox="0 0 24 24" fill="none" xmlns="http://www.w3.org/2000/svg">
<g id="Iconly/Light-Outline/Video">
<g id="Video">
<g id="Group 3">
<mask id="mask0_1884_122" style="mask-type:alpha" maskUnits="userSpaceOnUse" x="2" y="5" width="16" height="16">
<path id="Clip 2" fill-rule="evenodd" clip-rule="evenodd" d="M2 5H17.5003V20.5013H2V5Z" fill="white"/>
</mask>
<g mask="url(#mask0_1884_122)">
<path id="Fill 1" fill-rule="evenodd" clip-rule="evenodd" d="M6.84711 6.50135C6.40811 6.50135 6.12511 6.50135 6.07611 6.50335C5.33811 6.53435 4.65711 6.84735 4.16611 7.38335C3.70811 7.88435 3.47211 8.52435 3.50311 9.18835C3.50311 12.0813 3.50411 16.4233 3.51111 16.6613C3.62511 18.0463 4.92311 19.1053 6.40911 18.9913C9.15911 18.9953 13.2331 19.0043 13.4241 18.9973C14.1591 18.9673 14.8411 18.6553 15.3321 18.1203C15.7911 17.6213 16.0271 16.9813 15.9981 16.3203C15.9971 16.3093 15.9971 16.2983 15.9971 16.2873C15.9981 13.4273 15.9981 9.08835 15.9911 8.85535C15.8781 7.46335 14.5741 6.39135 13.0801 6.50835C11.0141 6.50535 8.19511 6.50135 6.84711 6.50135M6.14611 20.5013C4.03211 20.5023 2.18811 18.8823 2.01411 16.7573C2.01111 16.7163 2.00111 16.5913 2.00411 9.22235C1.95611 8.19135 2.33011 7.16735 3.06011 6.37035C3.82211 5.53835 4.87311 5.05335 6.02011 5.00435C6.15911 4.99435 10.9671 5.00635 13.0261 5.01035C15.2761 4.85235 17.3071 6.52235 17.4881 8.76335C17.4961 8.87235 17.4991 11.3973 17.4971 16.2723C17.5391 17.3283 17.1631 18.3453 16.4371 19.1353C15.6741 19.9663 14.6221 20.4493 13.4761 20.4963C13.3361 20.5063 8.52611 20.4933 6.46411 20.4893C6.35811 20.4973 6.25211 20.5013 6.14611 20.5013" fill="white"/>
</g>
</g>
<path id="Fill 4" fill-rule="evenodd" clip-rule="evenodd" d="M20.8179 18.3493C20.3669 18.3493 19.9219 18.1943 19.5549 17.8933L16.2739 15.1973C15.9539 14.9343 15.9079 14.4613 16.1709 14.1413C16.4329 13.8223 16.9059 13.7743 17.2259 14.0383L20.5059 16.7343C20.7269 16.9143 20.9489 16.8403 21.0349 16.7983C21.1209 16.7583 21.3199 16.6333 21.3199 16.3493L21.3319 9.00031C21.3329 8.71631 21.1329 8.59131 21.0469 8.55031C20.9619 8.51031 20.7369 8.43531 20.5179 8.61531L17.2249 11.3103C16.9029 11.5733 16.4319 11.5263 16.1699 11.2043C15.9069 10.8843 15.9549 10.4123 16.2749 10.1503L19.5679 7.45431C20.1719 6.95931 20.9849 6.86231 21.6899 7.19531C22.3949 7.53031 22.8329 8.22231 22.8319 9.00231L22.8199 16.3513C22.8189 17.1313 22.3799 17.8233 21.6759 18.1553C21.3999 18.2863 21.1079 18.3493 20.8179 18.3493" fill="white"/>
</g>
</g>
</svg>
